<svg id="Layer_1" data-name="Layer 1" xmlns="http://www.w3.org/2000/svg" viewBox="0 0 126 126"><defs><style>.cls-1{fill:#26566a;}.cls-2{fill:#fff;}</style></defs><circle class="cls-1" cx="63" cy="63" r="63"/><path class="cls-2" d="M104.62,76.33a14.13,14.13,0,0,0,1.07-8.62,26.86,26.86,0,0,0-5.5-12.29A63.84,63.84,0,0,0,74,35c-.2-.09-.4-.15-.6-.23a1.78,1.78,0,0,1-1.22-1.68,1.75,1.75,0,0,1,1.17-1.71c1.69-.71,3.4-1.39,5.08-2.13,1.53-.65,1.42-1.73,0-2A94.62,94.62,0,0,0,63,26.44a95.7,95.7,0,0,0-15.39.79c-1.42.26-1.53,1.34,0,2s3.39,1.42,5.08,2.13a1.74,1.74,0,0,1,1.17,1.71,1.77,1.77,0,0,1-1.22,1.68c-.2.08-.4.14-.6.23A63.76,63.76,0,0,0,25.81,55.42a27,27,0,0,0-5.5,12.29,14.05,14.05,0,0,0,1.07,8.62,8.54,8.54,0,0,0,9.08,4.49c.08-.64.15-1.27.24-1.91s.2-1.34.31-2c1.3-7.6,4.77-14.25,8.9-20.62A1.78,1.78,0,1,1,43,58.1c-.67,1.21-1.4,2.38-2.13,3.55a45.06,45.06,0,0,0-6,14.35,21.52,21.52,0,0,0-.75,7.65c.7,5.08,4,8.37,9.28,9.3a16.67,16.67,0,0,0,4.93.1,36.46,36.46,0,0,1-.65-4.75c0-2.66.16-5.32.34-8a84.7,84.7,0,0,1,3.84-19.81,1.81,1.81,0,0,1,2.31-1.38,1.77,1.77,0,0,1,1.09,2.39A90.12,90.12,0,0,0,51.4,82.17a29.4,29.4,0,0,0,.12,8.43c.87,4,2.85,7,6.88,8.38a13.83,13.83,0,0,0,4.6.59A13.57,13.57,0,0,0,67.6,99c4-1.36,6-4.4,6.88-8.38a29,29,0,0,0,.12-8.43,90.12,90.12,0,0,0-3.85-20.65,1.77,1.77,0,0,1,1.09-2.39,1.81,1.81,0,0,1,2.31,1.38A84.7,84.7,0,0,1,78,80.32c.18,2.66.36,5.32.34,8a36.46,36.46,0,0,1-.65,4.75,16.66,16.66,0,0,0,4.93-.1c5.26-.93,8.58-4.22,9.28-9.3A22,22,0,0,0,91.14,76a45.15,45.15,0,0,0-6-14.35c-.73-1.17-1.45-2.35-2.13-3.55a1.78,1.78,0,1,1,3.06-1.81c4.13,6.37,7.6,13,8.9,20.62.11.67.22,1.33.31,2s.16,1.28.24,1.91a8.56,8.56,0,0,0,9.08-4.49Z"/></svg>