<svg version="1.1" id="Layer_1" xmlns="http://www.w3.org/2000/svg" x="0" y="0" viewBox="0 0 126 126" xml:space="preserve">
  <style>
    .st0{fill:#26566A;} .st1{fill:#FFFFFF;}
  </style>
  <circle class="st0" cx="63" cy="63" r="63"/>
  <path class="st1" d="M68.61 102.62a200 200 0 01-16.29-.58 2.03 2.03 0 01-1.78-2.63c2.86-8.39 2.17-19.66-1.52-23.79a2.82 2.82 0 00-.36-.33l-12.56-9.7a5.73 5.73 0 01-.57-8.57 6.7 6.7 0 018.39-.88l8.21 5.02a2.07 2.07 0 003.13-1.89c-.51-9.32-3.16-16.45-11.15-24.05l-1.68-1.88a4.07 4.07 0 01.07-5.69l2.46-2.46a3.99 3.99 0 015.56-.1l9.78 9.08c.79.73 2 .73 2.79 0l10.35-9.62a4.44 4.44 0 015-.71l1.16.58a3.72 3.72 0 011.94 2.34 4.3 4.3 0 01-.53 3.42c-.71 1.14-1.72 2.46-2.83 3.92-2.51 3.28-5.63 7.37-7.08 11.74-.48 1.64.09 4.18 3.33 2.84.76-.32 1.7-.63 2.7-1 2.62-.96 5.47-2 7.83-3.05h.03c.09 0 .36-.03.62-.03a2.44 2.44 0 012.43 1.74l.61 3.23a2.9 2.9 0 01-1.44 3.42l-11.28 5.89a4.7 4.7 0 00-2.53 4.19l.01.85a3.27 3.27 0 001.25 2.8c.99.61 2.14.9 3.3.83 2.37 0 5.76-.76 10.09-2.25l.5-.02a2.58 2.58 0 012.52 1.77l.84 2.59a4.87 4.87 0 01-2.62 5.93l-11.37 5.17c-3.93 1.69-2.81 12.83-1.23 19.26a2.03 2.03 0 01-1.89 2.55c-1.79.04-3.9.07-6.19.07z"/>
</svg>
