<svg version="1.1" id="Layer_1" xmlns="http://www.w3.org/2000/svg" x="0" y="0" viewBox="0 0 126 126" xml:space="preserve">
  <style>
    .st0{fill:#26566A;} .st1{fill:#FFFFFF;}
  </style>
  <circle class="st0" cx="63" cy="63" r="63"/>
  <path class="st1" d="M100.69 25.28a5.59 5.59 0 00-7.88 0L80.25 37.84c-.21.21-.44.4-.68.56A145.15 145.15 0 0038.4 79.56c-.16.25-.35.48-.56.68L25.28 92.81a5.6 5.6 0 007.91 7.91l12.56-12.56c.21-.21.44-.39.69-.56A145.15 145.15 0 0087.6 46.43c.16-.25.35-.48.56-.68l12.56-12.56a5.58 5.58 0 00-.03-7.91zm-2.73 4.89L74.47 53.64a3.03 3.03 0 01-3.71 3.71L57.35 70.76a3 3 0 01-3.71 3.71L30.3 97.8a1.5 1.5 0 01-2.12 0 1.5 1.5 0 010-2.12l23.35-23.34a3.03 3.03 0 011.14-3.23 3.02 3.02 0 012.55-.46l13.42-13.42a3.03 3.03 0 011.14-3.24 3.02 3.02 0 012.55-.46l23.49-23.48a1.5 1.5 0 012.14 2.12z"/>
</svg>
