<svg version="1.1" id="Layer_1" xmlns="http://www.w3.org/2000/svg" x="0" y="0" viewBox="0 0 126 126" xml:space="preserve">
  <style>
    .st0{fill:#26566A;} .st1{fill:#FFFFFF;}
  </style>
  <circle class="st0" cx="63" cy="63" r="63"/>
  <path class="st1" d="M15.64 73.81c1.89 2.41 9.84 7.28 9.84 7.28s1.78 16.02 6.08 16.11c5.89.11 5.52-16.59 12.31-21.83 3.42-2.64 10.78 1.29 17.8.89.53 3.45 1.93 10.53 4.44 10.57 3.56.07 7.23-6.27 8.76-12.2l1.1-.23c.46 3.18 1.87 11.06 4.52 11.11 4.45.09 9.06-9.81 9.47-16.43 7.92-5.95 19.14-24.11 15.72-31.73-3.88-8.64-26.5-7.66-34.83-3.14-2.57 1.39-5.05 3-7.42 4.76-6.31-2.33-15.3-2.79-18.3.22-1.27 1.27.05 5.66 1.16 7.07.83 1.05 3.01 2.66 4.95 3.97-5.43 6.14-6.42 15.57-11.18 17.13-7.67 2.51-21.48-6.14-25.78-1.83-1.48 1.48.06 6.63 1.36 8.28z"/>
</svg>
