<svg version="1.1" id="Layer_1" xmlns="http://www.w3.org/2000/svg" x="0" y="0" viewBox="0 0 126 126" xml:space="preserve">
  <style>
    .st0{fill:#26566A;} .st1{fill:#FFFFFF;}
  </style>
  <circle class="st0" cx="63" cy="63" r="63"/>
  <path class="st1" d="M93.8 92c-.5 0-.9 0-1.3.2-.5 0-1 .2-1.3.3l-.7.3-.6.2a24.1 24.1 0 00-7.3 4.8l-.5.4-1 1-1 .9a26.7 26.7 0 01-2.9 2.6c-1.3 1-2.8 2-4.3 2.8-1.5.8-3.1 1.5-4.8 1.9-1.6.3-3.3.4-4.9.1a9.6 9.6 0 01-6-3.6l-.2-.3-.2-.2-.2-.2-.1-.3-.6-1a14 14 0 01-1.4-4.6 24.9 24.9 0 01.1-7.6 56.8 56.8 0 011.7-7.9c-.1 1.6.6 2.8.6 2.8S60 77 72.1 73c12-4 20.4-13.2 26-17.4 5.6-4.2 13.3-2 13.3-2s.5-4.9-7.1-7.4c-7.7-2.5-11.1.2-17.9-2-6.8-2.2-7.5-6-7.3-8.2.3-2.2.9-4.3-.4-6.5-1.3-2.3-2.2-1.9-2.2-1.9-1 .2-.8 1.2.3 3 1.1 1.7.2 3 .2 3-2 3-5.1 2.3-6.1 2l-.8-.3c-1-.3-4-1.5-3.8-5.3 0 0 0-1.5 2-2.3 2-.7 2.6-1.5 2-2.1 0 0-.6-.9-2.9.1s-3.1 3-4.2 5-4 4.6-10.7 2.4-8-6.5-15.6-9C29.2 21.6 26.8 26 26.8 26s7.5 2.7 9.5 9.4 3.3 19 10.7 29.5C54.4 75.2 52.3 83 52.3 83s1.8-.7 2.6-2.9A55.7 55.7 0 0052 92c0 1.8-.1 3.7.1 5.6a15.5 15.5 0 002.5 6.7l.2.3.2.3.3.3.2.2a13.8 13.8 0 004.8 3.4 11.3 11.3 0 002.8.7c1.9.3 3.8 0 5.6-.4a21 21 0 005.1-2.2 29 29 0 007.3-6l1-1 .8-1 .5-.4a20.6 20.6 0 012.5-2.2 22.9 22.9 0 016.8-3.7 13.8 13.8 0 012.6-.5V92h-1.4z"/>
</svg>
