<svg version="1.1" id="Layer_1" xmlns="http://www.w3.org/2000/svg" x="0" y="0" viewBox="0 0 126 126" xml:space="preserve">
  <style>
    .st0{fill:#26566A;} .st1{fill:#FFFFFF;}
  </style>
  <circle class="st0" cx="63" cy="63" r="63"/>
  <path class="st1" d="M107.65 37.96c-.65-.37-1.49-.09-1.86.65-1.61 3.3-3.41 6.85-4.62 9.15a4.84 4.84 0 00-2.37-.71l-3.25-5.92c-.37-.65-1.21-.93-1.86-.56-.65.37-.93 1.21-.56 1.86l2.94 5.26a5 5 0 00-2.1 2.38l-2.52 5.78a31.83 31.83 0 01-10.81 13.23l-.37.28c-.27.18-.56.34-.84.51l-1.03-2.46-1.86-6.15a24.89 24.89 0 00-30.67-17.24 19.34 19.34 0 00-11.84 9.23 19.18 19.18 0 00-1.86 14.82c2.24 8.11 10.85 13.1 19.01 10.62 8.53-2.58 9.32-11.74 8.48-14.73a9.4 9.4 0 00-11.56-6.52 6.94 6.94 0 00-4.38 3.36 6.92 6.92 0 00-.65 5.41c.19.75-.19 1.49-.93 1.68-.75.19-1.49-.19-1.68-.93a9.71 9.71 0 01.93-7.55 9.98 9.98 0 016.06-4.75c6.43-1.77 13.31 2 15.01 8.48 1.73 6.61-1.96 11.84-1.96 11.84a14.75 14.75 0 01-8.67 6.43 18.5 18.5 0 01-15.66-2.89c-1.86 3.63-5.69 5.96-9.69 7.64-1.12.47-.75 2.05.47 2.05H70.1c2.7 0 5.41-.28 8.02-.75A25.2 25.2 0 0096.85 71.8l6.34-17.89c.47-1.12.56-2.42.09-3.63l-.12-.26c.87-1.65 2.42-4.63 5.15-10.17.37-.67.09-1.51-.66-1.89z"/>
</svg>
