<svg version="1.1" id="Layer_1" xmlns="http://www.w3.org/2000/svg" x="0" y="0" viewBox="0 0 126 126" xml:space="preserve">
  <style>
    .st0{fill:#26566A;} .st1{fill:#FFFFFF;}
  </style>
  <circle class="st0" cx="63" cy="63" r="63"/>
  <path class="st1" d="M84.54 23.8l-.56.02a7.3 7.3 0 101.84 14.45c1.16-.21 3.12 1.09 3.71 2.63.69 1.77-.54 3.56-1.84 4.42-4.07 2.69-8.81-3.68-16.92-5.73-.12.01-12.38-3.28-18.53 8.57-2.3 4.49-2.24 9.2-.33 13.84 2.72 6.57 8.27 11.01 8.97 15.45.26 1.38.13 2.98-.99 3.83-1.01.79-3.33 1.04-5.4.55-4.21-.91-8.22-3.81-13.73-4.68-8.38-1.3-14.28 2.87-15.71 9.24-.86 3.71-.26 7.54.72 11.2a3.59 3.59 0 006.96-1.7c-.72-3.27-.81-5.84-.29-7.62.88-3.07 3.74-3.61 6.85-2.94 3.75.8 8.05 3.82 12.99 5.23 4.3 1.18 9.17.97 12.94-1.48 3.81-2.41 6.17-7.11 5.49-13.02-.9-7.78-6.94-12.9-8.69-17.98-.73-2.1-.5-3.38.19-4.57a5.4 5.4 0 013.56-2.54c5.2-1.01 15.12 13.66 28.81 5.55 16.57-9.64 7.7-33.98-10.04-32.72z"/>
</svg>
