<svg version="1.1" id="Layer_1" xmlns="http://www.w3.org/2000/svg" x="0" y="0" viewBox="0 0 126 126" xml:space="preserve">
  <style>
    .st0{fill:#26566A;} .st1{fill:#FFFFFF;}
  </style>
  <circle class="st0" cx="63" cy="63" r="63"/>
  <path class="st1" d="M97 97.82l-25.47-4.29.21-1.02 14.03 1.5c.55.03 1.02-.38 1.05-.92s-.38-1.02-.92-1.05l-13.74-1.47.22-1.05 21.13 1.31c.55.01 1-.43 1-.97s-.43-1-.97-1l-20.75-1.29.19-.9c14.67.07 14.22-1.46 13.74-4.77-.35-2.42-1.57-6.15-2.3-7.7-.74-1.55-1.54-1.57-7.34-.54-3.41.6-8.54.58-12.2.46-.09-.49-.48-.87-.99-.94-9.99-1.4-17.29-10.39-16.49-20.54.24-3.09 1.33-6.05 3.27-8.47 3.4-4.24 8.46-6.38 13.67-5.91 7 .62 12.19 6.81 11.58 13.81-.5 5.73-5.57 9.98-11.3 9.48-1.64-.14-3.19-.71-4.49-1.73-2.38-1.87-3.58-4.68-3.33-7.58a7.11 7.11 0 017.71-6.46c.66.06 1.16.64 1.1 1.31-.06.66-.65 1.15-1.31 1.1a4.71 4.71 0 00-5.09 4.27c-.18 2.02.63 3.98 2.25 5.33 1.01.84 2.26 1.3 3.58 1.38 4.32.27 8.1-2.97 8.48-7.3.5-5.67-3.71-10.69-9.38-11.19-4.51-.4-8.87 1.49-11.75 5.24-1.54 2.01-2.4 4.47-2.58 6.99a16.7 16.7 0 003.88 12.04c2.89 3.44 6.94 5.55 11.41 5.95 5.67.5 11.2-1.24 15.56-4.9 4.82-4.05 8.06-12.71 7.56-18.98-1.04-12.9-11.24-23.56-24.52-24.73-18.67-1.65-35.19 12.21-36.83 30.88-2.02 23.01 14.66 43.43 37.42 46.21.45.06.86-.17 1.09-.52l3.83.5c.39.05.79-.33 1.07-.76l19.01 4.55c.54.1 1.05-.26 1.15-.79a.988.988 0 00-.79-1.15l-18.79-4.5.26-1.23 25.65 4.31a.992.992 0 10.23-1.97z"/>
</svg>
