<svg version="1.1" id="Layer_1" xmlns="http://www.w3.org/2000/svg" x="0" y="0" viewBox="0 0 126 126" xml:space="preserve">
  <style>
    .st0{fill:#26566A;} .st1{fill:#FFFFFF;}
  </style>
  <circle class="st0" cx="63" cy="63" r="63"/>
  <path class="st1" d="M51.66 57.85c3.17.12 5.9-.1 7.83.24.77.14 1.54-.05 2.18-.5 1.22-.84 3.6-2.12 7.43-2.75 4.71-.78 7.65-3 8.65-4.72.38-.64.18-1.47-.4-1.95-.72-.59-1.92-1.49-3.48-2.43l6.04-9.46c.35-.54.19-1.26-.35-1.61-.54-.34-1.26-.19-1.61.35l-5.08 7.96 4.99-11.54c.25-.59-.02-1.27-.61-1.53-.59-.25-1.27.02-1.53.61L70.58 42.4l2.75-8.51c.2-.61-.14-1.27-.75-1.46-.61-.2-1.27.14-1.46.75l-3.17 9.78c-.01.03 0 .06-.01.09-.82-.26-1.68-.47-2.57-.63l3.97-13.95c.18-.62-.18-1.26-.8-1.44-.62-.18-1.26.18-1.44.8l-2.96 10.42 1.69-14.24c.08-.64-.38-1.22-1.02-1.29a1.16 1.16 0 00-1.29 1.02l-1.96 16.52-1.96-19.71a1.17 1.17 0 00-1.27-1.04c-.64.06-1.11.63-1.04 1.27l1.73 17.35-4.45-14.5a1.16 1.16 0 00-1.45-.77c-.61.19-.96.84-.77 1.45l4.49 14.64-5.98-12.73c-.27-.58-.96-.83-1.55-.56-.58.27-.83.97-.56 1.55l6.74 14.35c-1.31-.01-2.32.04-2.97.08-.54.03-1.02.34-1.27.82-.84 1.58-2.72 5.29-3.07 7.4-.45 2.73-.4 7.84 3.48 7.99z"/>
  <path class="st1" d="M98.65 66.88S88.02 52.87 85.24 50.39c-2.48-2.21-2.76-3.24-5.92-3.3-.4-.01-.58.49-.28.75 1.52 1.26 2.06 3.88-1.35 6.12-4.92 3.24-12.87 4.1-15.41 6.1-.64.51-1.47.69-2.28.57-1.85-.27-5.14-.53-8.37-.41-5.04.19-7.39-6.65-5.11-10.72.22-.39-.04-.83-.46-.68-1.92.68-5.17 2.84-5.73 9.62-.79 9.74-5.76 18.08-8.15 23.45s-.2 9.54 7.65 12.32c7.85 2.78 7.55 2.98 10.23 4.77 2.68 1.79 10.63 2.68 15.6-1.19 0 0 24.24-1.49 26.92-18.28.01-.01 6.96-2.4 6.07-12.63zM46.8 88.63c-.24.38-.65.59-1.06.59a1.258 1.258 0 01-1.07-1.91c.05-.08 2.95-5.09 3.37-18.8.02-.68.58-1.21 1.25-1.21h.04c.69.02 1.23.6 1.21 1.29-.45 14.58-3.61 19.83-3.74 20.04zm42.57-14.52a1.237 1.237 0 01-1.54-.87c-2.59-9.32-6.73-12.77-6.77-12.81-.53-.43-.62-1.22-.19-1.76a1.26 1.26 0 011.75-.2c.19.16 4.79 3.91 7.62 14.09.19.68-.2 1.37-.87 1.55z"/>
</svg>
