<svg version="1.1" id="Layer_1" xmlns="http://www.w3.org/2000/svg" x="0" y="0" viewBox="0 0 126 126" xml:space="preserve">
  <style>
    .st0{fill:#26566A;} .st1{fill:#FFFFFF;}
  </style>
  <circle class="st0" cx="63" cy="63" r="63"/>
  <path class="st1" d="M20.79 49.91c-.59-.13-.9-.78-.59-1.3 1.54-2.63 6.07-9.13 13.15-9.13 8.88 0 16.47 12.56 19.43 12.56 2.85 0 13.35-25.01 42.21-26.82.86-.05 1.26 1.07.57 1.59-14.11 10.69-3.15 39.02-22.84 45.67 8.65 10.78 18.67 10.98 28.15 9.37.87-.15 1.4.91.77 1.54-9.7 9.63-14.3 13.84-33.68 13.84-20.71 0-34.35-17.26-34.35-31.2 0-12.14-9.44-15.35-12.82-16.12z"/>
</svg>
