<svg version="1.1" id="Layer_1" xmlns="http://www.w3.org/2000/svg" x="0" y="0" viewBox="0 0 126 126" xml:space="preserve">
  <style>
    .st0{fill:#26566A;} .st1{fill:#FFFFFF;}
  </style>
  <circle class="st0" cx="63" cy="63" r="63"/>
  <path class="st1" d="M76.48 28.83h-.03a17.45 17.45 0 00-13.47-6.33 17.45 17.45 0 00-13.47 6.33l-.01.02c-.39.48-.76.97-1.1 1.49-4.85 6.89-22.79 36.35.67 66.26l.44.56.01.01c3.21 3.87 8.05 6.33 13.47 6.33s10.26-2.46 13.47-6.33h.03c27.55-34.38-.01-68.34-.01-68.34zM50.82 42.29a9.83 9.83 0 012.48-3.38c.05-.09.09-.19.16-.28a1.25 1.25 0 011.77-.1c3.51 3.15 9.72 4.69 15.04.62l.7-.52c.32-.23.71-.27 1.07-.17.18.03.36.09.53.2.07.05 1.7 1.22 2.79 3.62a1.25 1.25 0 01-2.28 1.02 7.57 7.57 0 00-1.39-2.09 13.88 13.88 0 01-8.43 2.9c-3.29 0-6.38-1.18-8.73-2.94a7.31 7.31 0 00-1.43 2.13 1.26 1.26 0 01-1.65.63 1.22 1.22 0 01-.63-1.64zm-4.57 9.62a9.68 9.68 0 011.91-4.02l.01-.05c.27-.64 1-.94 1.64-.67 2.12.89 3.94 2.01 5.42 3.34 3.51 3.15 9.72 4.69 15.04.62a33.1 33.1 0 016-3.66 1.23 1.23 0 011.47.33 9.37 9.37 0 012 4.11 1.25 1.25 0 01-1.22 1.52c-.57 0-1.09-.4-1.22-.98a7.81 7.81 0 00-.89-2.25 31.7 31.7 0 00-4.62 2.92 13.9 13.9 0 01-8.54 2.98 14.8 14.8 0 01-9.7-3.72 16.43 16.43 0 00-3.79-2.47 7.48 7.48 0 00-1.08 2.54 1.26 1.26 0 01-1.49.95 1.25 1.25 0 01-.94-1.49zm-1.73 5.98l.11-.13c.19-.63.84-1.01 1.49-.85 2.08.52 6.02 1.8 9.11 4.57 3.51 3.15 9.72 4.69 15.04.62a32.56 32.56 0 019.55-5.08c.63-.2 1.29.13 1.53.73l.12.14c.04.07.98 1.85.88 4.49-.03.67-.58 1.2-1.25 1.2h-.05a1.25 1.25 0 01-1.2-1.3 7.72 7.72 0 00-.32-2.51c-1.87.69-4.71 2-7.74 4.31a13.9 13.9 0 01-8.54 2.98c-3.76 0-7.26-1.54-9.69-3.72a18.72 18.72 0 00-7.05-3.73 7.33 7.33 0 00-.37 2.67c.03.69-.51 1.27-1.2 1.3h-.05c-.67 0-1.22-.53-1.25-1.2-.1-2.63.84-4.41.88-4.49zm34.66 23.39c-.03.12-.65 2.99-2.09 5.09a1.25 1.25 0 01-1.73.32 1.25 1.25 0 01-.33-1.74c.32-.47.6-1.01.83-1.53a31.39 31.39 0 00-4.1 2.64 13.9 13.9 0 01-8.54 2.98c-3.76 0-7.26-1.54-9.69-3.72a15.85 15.85 0 00-3.83-2.49c.27.71.62 1.48 1.07 2.14a1.25 1.25 0 01-2.06 1.42c-1.43-2.1-2.06-4.97-2.09-5.09-.02-.07 0-.14 0-.21a1.19 1.19 0 01-.01-.79c.22-.65.94-1.01 1.59-.78 2.8.96 5.16 2.29 7.01 3.95 3.51 3.15 9.72 4.69 15.04.62a33.15 33.15 0 017.13-4.17c.06-.03.13-.02.19-.04.21-.07.43-.11.66-.06.66.12 1.09.78.95 1.46zm2.45-8a1.25 1.25 0 01-1.61.73 1.24 1.24 0 01-.72-1.61c.24-.64.37-1.23.44-1.72a30.15 30.15 0 00-7.94 4.39 13.9 13.9 0 01-8.54 2.98 14.8 14.8 0 01-9.7-3.72 19.06 19.06 0 00-7.38-3.82c.06.53.18 1.19.46 1.9a1.24 1.24 0 01-1.16 1.69c-.5 0-.98-.31-1.17-.81a13.5 13.5 0 01-.6-5.53l.01-.02v-.09c.14-.68.8-.12 1.48.02 1.83.37 6.49 1.59 10.05 4.78 3.51 3.15 9.72 4.69 15.04.62 4.59-3.5 8.82-4.9 10.43-5.34a1.25 1.25 0 011.57 1.38c.04.69.06 2.28-.66 4.17z"/>
</svg>
