<svg version="1.1" id="Layer_1" xmlns="http://www.w3.org/2000/svg" x="0" y="0" viewBox="0 0 126 126" xml:space="preserve">
  <style>
    .st0{fill:#26566A;} .st1{fill:#FFFFFF;}
  </style>
  <circle class="st0" cx="63" cy="63" r="63"/>
  <path class="st1" d="M104.62 49.67c-1.73-3.42-5.25-4.97-9.08-4.49-.08.63-.15 1.27-.24 1.91-.09.67-.2 1.33-.31 2-1.3 7.59-4.77 14.25-8.9 20.62-.59.91-1.62 1.15-2.48.61-.82-.51-1.1-1.51-.58-2.42.68-1.2 1.4-2.38 2.13-3.55 2.79-4.45 4.85-9.21 5.98-14.35.55-2.52 1.1-5.05.75-7.65-.7-5.08-4.02-8.37-9.28-9.3-1.66-.29-3.31-.3-4.93-.1.24 1.67.64 3.21.65 4.75.02 2.66-.16 5.32-.34 7.98-.45 6.76-1.81 13.35-3.84 19.81-.36 1.15-1.3 1.7-2.31 1.38-.97-.31-1.45-1.26-1.09-2.39 2.13-6.73 3.33-13.62 3.85-20.65.21-2.82.49-5.62-.12-8.43-.86-3.98-2.85-7.02-6.88-8.38-1.5-.51-3.05-.61-4.6-.59-1.55-.02-3.1.09-4.6.59-4.03 1.36-6.01 4.4-6.88 8.38-.61 2.81-.32 5.61-.12 8.43.52 7.03 1.72 13.92 3.85 20.65.36 1.13-.12 2.07-1.09 2.39-1.01.32-1.95-.23-2.31-1.38-2.03-6.46-3.39-13.05-3.84-19.81-.18-2.66-.36-5.32-.34-7.98.01-1.54.41-3.08.65-4.75-1.61-.2-3.27-.19-4.93.1-5.26.93-8.58 4.22-9.28 9.3-.36 2.59.19 5.13.75 7.65 1.13 5.15 3.19 9.9 5.98 14.35.73 1.17 1.46 2.34 2.13 3.55.51.91.24 1.9-.58 2.42-.85.53-1.89.3-2.48-.61-4.13-6.37-7.6-13.02-8.9-20.62-.11-.66-.22-1.33-.31-2-.09-.64-.16-1.27-.24-1.91-3.83-.49-7.35 1.07-9.08 4.49-1.39 2.74-1.5 5.65-1.07 8.62.67 4.62 2.76 8.62 5.5 12.29 6.87 9.21 15.74 15.88 26.23 20.45.2.09.4.15.6.23.75.31 1.21.86 1.22 1.68.01.81-.42 1.4-1.17 1.71-1.69.71-3.4 1.39-5.08 2.13-1.53.65-1.42 1.73 0 1.99 3.47.64 9.43.84 15.39.79 5.96.06 11.91-.15 15.39-.79 1.42-.26 1.53-1.34 0-1.99-1.68-.74-3.39-1.42-5.08-2.13-.75-.32-1.18-.9-1.17-1.71.01-.81.47-1.37 1.22-1.68.2-.08.4-.14.6-.23 10.49-4.57 19.36-11.25 26.23-20.45 2.74-3.67 4.84-7.67 5.5-12.29.43-2.97.31-5.88-1.07-8.62z"/>
</svg>
