<svg version="1.1" id="Layer_1" xmlns="http://www.w3.org/2000/svg" x="0" y="0" viewBox="0 0 126 126" xml:space="preserve">
  <style>
    .st0{fill:#26566A;} .st1{fill:#FFFFFF;}
  </style>
  <circle class="st0" cx="63" cy="63" r="63"/>
  <path class="st1" d="M100.96 79.49l-4.17-8.75c-.16-.4-.56-.64-.96-.8l-7.71-1.93c-.4-.96-1.04-1.93-1.69-2.81-.42-.47-.86-.93-1.31-1.37 5.8-5.98 7.52-6.65 7.88-9.18a6.55 6.55 0 00-.96-4.22c5.57-8.64-2.5-26.3-10.37-23.04-.19 0-.38.19-.38.19 1.92 1.54 4.8 4.61 4.42 9.02 0 0-.77 4.03.19 5.95 0 0-4.61-5.18-6.53-4.22-.55.27-1.09.06-1.57-.36-.21-.18-.54-.04-.52.23.09 1.64.44 3.28.94 4.93.77 2.5 1.92 4.61 3.26 6.34-1.1 1.46-.81 2.42-2.1 9.95-.75-.47-1.22-.73-1.22-.73a28.26 28.26 0 00-4.5-1.77 3.85 3.85 0 10-7.46-1.36 41.05 41.05 0 00-3.21-.16c-1.12 0-2.17.08-3.21.16a3.9 3.9 0 00-3.85-3.85 3.85 3.85 0 00-3.61 5.21 31.7 31.7 0 00-4.5 1.77c-.47.2-.91.42-1.33.64l-1.29-7.75c-.19-.77-.38-1.54-.77-2.11a19.64 19.64 0 003.26-6.34c.49-1.63.84-3.4.93-4.95.02-.26-.28-.43-.49-.27-.48.39-1.04.56-1.6.42-1.92-.96-6.53 4.22-6.53 4.22.96-1.92.19-5.95.19-5.95-.38-4.22 2.3-7.49 4.42-9.02-.19 0-.19-.19-.38-.19-4.03-1.73-9.02 2.5-11.14 9.6-1.34 4.22-1.54 9.79.77 13.44-1.73 2.5-1.34 5.18.38 6.91l6.49 6.35c-.85.93-1.27 1.58-1.27 1.58-.64.88-1.2 1.85-1.69 2.81l-7.71 1.93c-.4.08-.8.4-.96.8l-4.09 8.67a1.5 1.5 0 00.48 1.85c.24.16.56.24.8.24.4 0 .72-.16 1.04-.4l4.39-4.46a3.9 3.9 0 012.78-1.16h2.21l.41 1.2-4.42 3.45a1.7 1.7 0 00-.56.96l-.88 9.31c-.08.72.4 1.36 1.04 1.53.16 0 .24.08.4.08.56 0 1.04-.32 1.28-.8l2.75-5.77c.4-.83 1.08-1.5 1.93-1.88l1.74-.78c.24.32.56.64.88.88l-2.65 3.53c-.24.32-.32.8-.24 1.2l2.41 9.39c.2.67.76 1.15 1.48 1.15h.16a1.53 1.53 0 001.36-1.36l.51-6.24c.08-1.04.58-2 1.38-2.67l1.24-1.04c4.42 2.33 10.03 3.77 16.06 3.77s11.64-1.44 16.06-3.77l1.24 1.04c.8.67 1.29 1.63 1.38 2.67l.51 6.24c.08.72.64 1.28 1.36 1.36h.16c.64 0 1.2-.48 1.44-1.12l2.41-9.39c.08-.4 0-.88-.24-1.2l-2.65-3.53c.32-.32.56-.64.88-.88l1.74.78a3.92 3.92 0 011.93 1.88l2.75 5.77c.24.48.8.8 1.28.8.16 0 .24 0 .4-.08.64-.16 1.12-.8 1.04-1.53l-.88-9.31c0-.4-.24-.72-.56-.96l-4.42-3.45c.08-.4.24-.8.24-1.2h2.38c1.04 0 2.04.42 2.78 1.16l4.39 4.46c.32.32.64.4 1.04.4.32 0 .56-.08.8-.24.67-.5.83-1.22.51-1.87z"/>
</svg>
