<svg version="1.1" id="Layer_1" xmlns="http://www.w3.org/2000/svg" x="0" y="0" viewBox="0 0 126 126" xml:space="preserve">
  <style>
    .st0{fill:#26566A;} .st1{fill:#FFFFFF;}
  </style>
  <circle class="st0" cx="63" cy="63" r="63"/>
  <path class="st1" d="M47.46 317.98c-2.03-.04-4.05.06-6.06.32a22.31 22.31 0 00-19.46 13.71 11.6 11.6 0 00-5.33 3.76 1.98 1.98 0 000 2.44 5.6 5.6 0 004.29 2.17h13.66a2.77 2.77 0 012.77 2.74 10.52 10.52 0 0010.61 10.41c.27 0 .54-.02.81-.04a8.86 8.86 0 01-3.04-8.06 2.77 2.77 0 013.56-2.25h-.02a68.3 68.3 0 0135.24 25.43 2.77 2.77 0 01-.63 3.86l-.11.08a17.95 17.95 0 00-5.78 6.07.69.69 0 00.25.94c.13.08.29.11.44.09a26.33 26.33 0 0121.44 6.97c.25.23.63.22.87-.03a.6.6 0 00.16-.47 21.64 21.64 0 00-7.26-14.5 2.75 2.75 0 01-.91-1.7 72.55 72.55 0 00-13.26-32.78 11.1 11.1 0 014.25-12.76 1.95 1.95 0 00-1.02-3.56c-4.64-.17-9.25.75-13.46 2.7-.82.38-1.77.34-2.55-.11a40.83 40.83 0 00-19.45-5.43h-.01z" transform="translate(0 -284.3)"/>
</svg>
