<svg version="1.1" id="Layer_1" xmlns="http://www.w3.org/2000/svg" x="0" y="0" viewBox="0 0 126 126" xml:space="preserve">
  <style>
    .st0{fill:#26566A;} .st1{fill:#FFFFFF;}
  </style>
  <circle class="st0" cx="63" cy="63" r="63"/>
  <path class="st1" d="M92.59 46.3a15.5 15.5 0 00-22.01-14.07A15.46 15.46 0 0058.97 27c-4.92 0-9.3 2.29-12.14 5.87 0 0-2.48 1.96-4.97 7.73a330.99 330.99 0 01-6.27 13.27c-.4.66-.74 1.36-1.04 2.08l-.01.03A15.44 15.44 0 0038 72.82a26.41 26.41 0 1048.7-14.37 15.44 15.44 0 005.89-12.15zm-11.94-8.14c.65 0 1.17.52 1.17 1.17s-.52 1.17-1.17 1.17c-.65 0-1.17-.52-1.17-1.17s.52-1.17 1.17-1.17zm-4.32 8.79c.65 0 1.17.52 1.17 1.17s-.52 1.17-1.17 1.17-1.17-.52-1.17-1.17.53-1.17 1.17-1.17zm-7.38-8.19c.65 0 1.17.52 1.17 1.17 0 .65-.52 1.17-1.17 1.17-.65 0-1.17-.52-1.17-1.17 0-.65.52-1.17 1.17-1.17zm-2.85 7.75c.65 0 1.17.52 1.17 1.17 0 .65-.52 1.17-1.17 1.17a1.17 1.17 0 010-2.34zm-7.26-12.24c.65 0 1.17.52 1.17 1.17s-.52 1.17-1.17 1.17c-.65 0-1.17-.52-1.17-1.17s.52-1.17 1.17-1.17zM44.66 46.51c.65 0 1.17.52 1.17 1.17 0 .65-.52 1.17-1.17 1.17a1.17 1.17 0 010-2.34zm-1.25 11.54c.65 0 1.17.52 1.17 1.17s-.52 1.17-1.17 1.17c-.65 0-1.17-.52-1.17-1.17s.52-1.17 1.17-1.17zm1.5 21.52c-.65 0-1.17-.52-1.17-1.17s.52-1.17 1.17-1.17a1.17 1.17 0 010 2.34zm7.91 4.18c0-.65.52-1.17 1.17-1.17.65 0 1.17.52 1.17 1.17s-.52 1.17-1.17 1.17c-.64 0-1.17-.52-1.17-1.17zm3.17 9.34c-.65 0-1.17-.52-1.17-1.17s.52-1.17 1.17-1.17a1.17 1.17 0 010 2.34zm2.85-12.35c-.65 0-1.17-.52-1.17-1.17 0-.65.52-1.17 1.17-1.17.65 0 1.17.52 1.17 1.17 0 .65-.52 1.17-1.17 1.17zm8.43 1.17c-.65 0-1.17-.52-1.17-1.17s.52-1.17 1.17-1.17c.65 0 1.17.52 1.17 1.17s-.52 1.17-1.17 1.17zm2.85 8.74c-.65 0-1.17-.52-1.17-1.17s.52-1.17 1.17-1.17c.65 0 1.17.52 1.17 1.17s-.52 1.17-1.17 1.17zm8.07-11.05c-.65 0-1.17-.52-1.17-1.17s.52-1.17 1.17-1.17c.65 0 1.17.52 1.17 1.17s-.52 1.17-1.17 1.17zm3.63-11.66c-.65 0-1.17-.52-1.17-1.17 0-.65.52-1.17 1.17-1.17.65 0 1.17.52 1.17 1.17 0 .65-.52 1.17-1.17 1.17zM68.27 56.8c-4.88.42-8.13 3.16-8.7 7.32-.45 3.26.96 6.47 3.2 7.31 1.68.63 4.3.87 6.17-.54 1.7-1.28 2.46-3.76 2.2-7.19a1.25 1.25 0 011.15-1.34c.69-.07 1.29.46 1.34 1.15l.01.23c1.44-.5 3.61-1.6 4.66-3.87.29-.63 1.03-.9 1.66-.61.63.29.9 1.03.61 1.66-1.66 3.61-5.2 4.98-6.94 5.46-.11 1.2-.35 2.21-.67 3.07 1.2.79 3.95 2.15 8.13 1.61.69-.1 1.31.39 1.4 1.08s-.39 1.31-1.08 1.4c-.77.1-1.51.15-2.2.15-3.58 0-6.11-1.19-7.47-2.05-.42.53-.87.95-1.3 1.27l-.02.01a18.04 18.04 0 007.33 11.63 1.25 1.25 0 11-1.46 2.03 20.3 20.3 0 01-8.21-12.51 9.3 9.3 0 01-1.45.29c-1.08 2.3-4.69 11.02-1.11 18.01a1.25 1.25 0 01-1.11 1.82c-.45 0-.89-.25-1.11-.68-3.71-7.25-.9-15.67.62-19.22-.74-.11-1.43-.29-2.03-.51a6.17 6.17 0 01-1.75-1.02c-2.42 1.01-10.67 5-10.72 12.81 0 .69-.56 1.24-1.25 1.24h-.01c-.69 0-1.25-.57-1.24-1.26.06-8.72 8.05-13.23 11.52-14.79A10.44 10.44 0 0157 65.75c-2.23-.29-7.99-.59-12.86 2.97a1.26 1.26 0 01-1.75-.27 1.25 1.25 0 01.27-1.75c5.52-4.03 11.83-3.79 14.52-3.45a10.55 10.55 0 014.13-6.57c-.42-2.37-2.52-10.18-12.35-13a1.26 1.26 0 01-.86-1.55c.19-.66.89-1.04 1.55-.86 6.83 1.96 10.34 6.15 12.08 9.32a19.54 19.54 0 011.86 4.79c1.28-.54 2.75-.93 4.47-1.07 13.34-1.15 17.18-6.16 17.22-6.21a1.26 1.26 0 011.75-.26c.55.41.67 1.19.26 1.75-.18.24-4.56 5.96-19.02 7.21zm-1.28 7.53c0 .65-.52 1.17-1.17 1.17-.65 0-1.17-.52-1.17-1.17s.52-1.17 1.17-1.17c.64 0 1.17.52 1.17 1.17zm-18.85 6.8c0-.65.52-1.17 1.17-1.17.65 0 1.17.52 1.17 1.17 0 .65-.52 1.17-1.17 1.17-.64 0-1.17-.53-1.17-1.17zm3.81-16.26c0-.65.52-1.17 1.17-1.17.65 0 1.17.52 1.17 1.17s-.52 1.17-1.17 1.17c-.65 0-1.17-.53-1.17-1.17zm33.38 24.7c-.65 0-1.17-.52-1.17-1.17s.52-1.17 1.17-1.17 1.17.52 1.17 1.17-.52 1.17-1.17 1.17z"/>
</svg>
