<svg version="1.1" id="Layer_1" xmlns="http://www.w3.org/2000/svg" x="0px" y="0px" viewBox="0 0 126 126" xml:space="preserve">
  <style>
    .st0{fill:#26566A;} .st1{fill:#FFFFFF;}
  </style>
  <circle class="st0" cx="63" cy="63" r="63"/>
  <path class="st1" d="M48.66 32.6c-8.78 0-15.89 7.11-15.89 15.89 0 .83.67 1.5 1.5 1.5s1.5-.67 1.5-1.5c.01-7.12 5.77-12.88 12.89-12.89.83 0 1.5-.67 1.5-1.5s-.68-1.5-1.5-1.5z"/>
  <path class="st1" d="M99.59 91.25L73.67 67.16l-2.16-2.08-2.65-2.65c-.05-.05-.11-.08-.16-.13 2.63-3.85 4.17-8.5 4.17-13.52 0-13.27-10.76-24.02-24.02-24.02-13.27 0-24.02 10.75-24.02 24.02S35.58 72.8 48.85 72.8c5.01 0 9.66-1.54 13.52-4.17.05.05.08.11.13.16l2.65 2.66 2.08 2.16 24.09 25.93c1.14 1.14 2.64 1.71 4.14 1.71s3-.57 4.14-1.71a5.87 5.87 0 00-.01-8.29zM48.84 67.39c-10.28-.02-18.6-8.34-18.62-18.62.02-10.28 8.34-18.6 18.62-18.62 10.28.02 18.6 8.34 18.62 18.62-.02 10.29-8.34 18.6-18.62 18.62z"/>
</svg>
