<svg version="1.1" id="Layer_1" xmlns="http://www.w3.org/2000/svg" x="0" y="0" viewBox="0 0 126 126" xml:space="preserve">
  <style>
    .st0{fill:#26566A;} .st1{fill:#FFFFFF;}
  </style>
  <circle class="st0" cx="63" cy="63" r="63"/>
  <path class="st1" d="M66.51 55.81c10.04-12.63 32.64-29.52 32.64-29.52s.68-.52.1-1.64c-.57-1.12-1.61-1.06-1.61-1.06s-8.91 2.97-27.82 15.55c-9.23 6.14-16.54 13.48-21.8 19.64l-.03.03a118.59 118.59 0 00-8.61 11.4l-.9 1.36c-.32.48-.42.96-.4 1.43l-4.11 3.19a.5.5 0 00-.09.71c.04.04.07.08.12.11a.5.5 0 00.59-.02l3.75-2.9.09.14.02.06-5.39 5.87a.5.5 0 00.03.71l.06.05c.2.14.48.11.65-.08l5.26-5.73.22.25-3.22 4.27a.51.51 0 00.1.71l.02.02c.22.15.52.1.68-.12l2.92-3.88c-2.04 5.33-5.65 9.07-8.33 13.27-2.75 4.3-1.61 11.92-1.61 11.92s1.08 4.99 2.6 2.2 4.27-4.9 7.35-6.13c3.09-1.23 1.54-.79 1.34-6.23-.1-2.79.72-7.58 3.75-10.33l-1.95 3.89a.5.5 0 00.22.68c.25.12.55.02.68-.22l2.57-5.11.28.12-2.78 7.31a.5.5 0 00.19.6l.1.05a.5.5 0 00.65-.29l2.76-7.27.22.09-1.2 5.17a.5.5 0 00.38.6c.27.06.54-.1.61-.38l1.19-5.11.1.02c.25.01.83-.75 1.71-2.07l.35-.54.14-.21c2.86-4.44 8.22-13.53 15.41-22.58z"/>
</svg>
