<svg version="1.1" id="Layer_1" xmlns="http://www.w3.org/2000/svg" x="0" y="0" viewBox="0 0 126 126" xml:space="preserve">
  <style>
    .st0{fill:#26566A;} .st1{fill:#FFFFFF;}
  </style>
  <circle class="st0" cx="63" cy="63" r="63"/>
  <path class="st1" d="M90.08 39.35V60.3c0 5.13-1.53 9.89-4.22 13.86a11.3 11.3 0 011.49 2.49 7.91 7.91 0 01-1.42 8.55L75.21 96.32a1.9 1.9 0 01-.76.6c-.91.4-1.95-.02-2.33-.91-.18-.4-.2-.82-.09-1.2l2.24-11.33a25.13 25.13 0 01-9.08 1.69l-24.06-.02c6.44 4.4 6.44 12.95 6.42 13.11-.04.6-.11 1.04-.29 1.58-.24.69-.69 1.44-1.71 1.13L30.92 89.46c-6.71-4.8-12.44-12.75-9.62-20.93 1.95-5.58 7.51-7.91 12.93-8.86l30.5-6.13 13.28-23.89c1.62-2.82 5.89-4.87 8.73-4.67 2.87.2 4.93.98 6.96 2.73l6.58 1.4c.69.04 1.2.62 1.15 1.31l-.73 2.67c-.24.6-.51 1.04-1.07 1.42l-9.55 4.84z"/>
</svg>
