<svg version="1.1" id="Layer_1" xmlns="http://www.w3.org/2000/svg" x="0" y="0" viewBox="0 0 126 126" xml:space="preserve">
  <style>
    .st0{fill:#26566A;} .st1{fill:#FFFFFF;}
  </style>
  <circle class="st0" cx="63" cy="63" r="63"/>
  <path class="st1" d="M97.51 82.2s-12.59-2.77-13.66-2.99c6.62-10.03 10.24-21.77 7.68-33.72-2.56-12.37-15.36-20.27-27.31-18.99L42.31 16.04c-.39-.19-.75.3-.46.62l13.83 15.39v14.89c0 .41.54.55.74.19l9.29-17c7.26 1.92 12.16 10.46 8.54 18.35-2.13 4.27-6.62 8.32-10.03 11.52-2.35-4.48-3.41-11.1-3.41-11.1-.64-.85-1.28-.43-2.13.43-2.35 2.77-3.63 6.19-4.7 9.6a29.28 29.28 0 00-1.71 9.6c0 1.28.21 1.92-.85 2.77a69.73 69.73 0 00-9.39 10.03c-3.63 4.48-6.83 9.6-8.75 15.15-.64 1.71-2.77 5.55-1.49 7.26s6.4 1.92 8.32 2.13c11.52 1.07 23.69-5.76 32.22-13.23a57.12 57.12 0 0012.16-2.77c7.26-2.56 13.23-5.76 13.23-5.76.64-.42.64-1.7-.21-1.91z"/>
</svg>
