<svg version="1.1" id="Layer_1" xmlns="http://www.w3.org/2000/svg" x="0" y="0" viewBox="0 0 126 126" xml:space="preserve">
  <style>
    .st0{fill:#26566A;} .st1{fill-rule:evenodd;clip-rule:evenodd;fill:#FFFFFF;}
  </style>
  <circle class="st0" cx="63" cy="63" r="63"/>
  <path class="st1" d="M97.6 39.11C97.6 30.9 89.82 27 82.55 27H57.89c-2.91 0-2.91 4.42 0 4.42h24.66c4.71 0 10.63 2.08 10.63 7.7a2.2 2.2 0 01-2.2 2.2H51.76c-2.78 0-5.55.46-8.16 1.43-6.72 2.49-17.2 9.11-17.2 26.22 0 25.17 25.38 26 25.38 26l27.44-.52s18.05 9.29 18.05 1.34c0-4.69 1.08-18.35-8.38-12.89-7.31 4.23-9.93 4.35-9.93 4.35-14.28.3-34.12 3.07-34.3-13.85-.08-6.73 5.12-9.6 10.85-10.71l4.42 7.59c1.45 2.51 5.27.29 3.82-2.22l-3.46-5.93c1.29-.07 2.53-.09 3.69-.06l4.78 8.21c1.45 2.51 5.27.29 3.82-2.22l-3.32-5.69c1.14.02 2.33-.07 3.57-.26l4.76 8.17c1.45 2.51 5.27.29 3.82-2.22l-4.08-7.01C87.47 57.86 97.6 50.28 97.6 39.11z"/>
</svg>
