<svg version="1.1" id="Layer_1" xmlns="http://www.w3.org/2000/svg" x="0" y="0" viewBox="0 0 126 126" xml:space="preserve">
  <style>
    .st0{fill:#26566A;} .st1{fill:#FFFFFF;}
  </style>
  <circle class="st0" cx="63" cy="63" r="63"/>
  <path class="st1" d="M88.9 56.77a.73.73 0 00.84.33.74.74 0 00.54-.71 79.07 79.07 0 00-2.32-19.26A23.73 23.73 0 0063.2 18.05h-.39a23.72 23.72 0 00-24.75 19.06 79.65 79.65 0 00-2.33 19.27.74.74 0 001.37.38c.47-.77 3.44-3.22 4.41-3.82-.01.41-.05 2.52.42 6.05l-5.47 5.02a1.33 1.33 0 101.8 1.96l4.18-3.83a75.2 75.2 0 001.17 5.28l-5.14 4.72a1.33 1.33 0 101.8 1.96l4.14-3.8c.45 1.55.98 3.18 1.58 4.9l-5.03 4.62a1.33 1.33 0 101.8 1.96l4.22-3.88a60.82 60.82 0 001.9 4.61l-5.18 4.75a1.33 1.33 0 101.8 1.96l4.59-4.21c.89 1.7 1.77 3.16 2.65 4.4l-5.27 4.84a1.33 1.33 0 101.8 1.96l5.11-4.69a18.02 18.02 0 004.04 3.59l-6.1 5.6a1.33 1.33 0 101.8 1.96l6.9-6.34c.34.1.64.17.9.22v10.35c0 .61.5 1.11 1.11 1.11.61 0 1.11-.5 1.11-1.11V96.55c.26-.05.56-.11.9-.21l6.9 6.34c.26.23.58.35.9.35a1.33 1.33 0 00.9-2.31l-6.09-5.59a17.8 17.8 0 004.04-3.59l5.1 4.68c.26.23.58.35.9.35a1.33 1.33 0 00.9-2.31l-5.26-4.83c.87-1.24 1.76-2.7 2.65-4.4l4.59 4.21c.26.23.58.35.9.35a1.33 1.33 0 00.9-2.31l-5.17-4.75a70.97 70.97 0 001.9-4.61l4.22 3.87c.26.23.58.35.9.35a1.33 1.33 0 00.9-2.31l-5.03-4.61c.6-1.72 1.13-3.36 1.58-4.9l4.13 3.79c.26.23.58.35.9.35a1.33 1.33 0 00.9-2.31l-5.14-4.72c.5-1.94.88-3.7 1.17-5.28l4.17 3.83c.26.23.58.35.9.35a1.33 1.33 0 00.9-2.31l-5.46-5.01c.46-3.45.44-5.55.43-6.03.83.54 3.87 3.01 4.33 3.79zM43.36 43.95c.11-.32 2.74-7.81 14.65-7.15 2.55.14 4.88.11 7.13.07 7.39-.11 13.22-.21 17.37 6.82.37.63.16 1.45-.47 1.82-.21.13-.44.18-.68.18-.46 0-.9-.23-1.15-.66-3.36-5.7-8-5.62-15.03-5.51-2.19.03-4.67.08-7.32-.07-9.77-.55-11.89 5.1-11.98 5.34-.24.69-1 1.06-1.69.82a1.3 1.3 0 01-.83-1.66zm4.55 10.94c.08-.25 2.14-6.13 11.36-5.6 1.91.11 3.65.08 5.34.05 5.45-.08 10.14-.16 13.36 5.3.37.63.16 1.45-.47 1.82-.63.37-1.45.16-1.82-.47-2.43-4.12-5.67-4.07-11.02-3.98a69.6 69.6 0 01-5.53-.06c-7.22-.4-8.66 3.74-8.68 3.78a1.34 1.34 0 01-2.54-.84zm16.13 23.02a46.6 46.6 0 01-3.5-.04c-4.06-.23-4.92 1.96-4.95 2.06a1.35 1.35 0 01-1.7.8 1.32 1.32 0 01-.82-1.66c.06-.17 1.48-4.18 7.62-3.85 1.18.07 2.26.05 3.31.03 3.42-.05 6.65-.11 8.81 3.57.37.63.16 1.45-.47 1.82-.21.13-.44.18-.68.18-.46 0-.9-.23-1.15-.66-1.32-2.24-2.94-2.31-6.47-2.25zm.33-13.55c-1.37.02-2.93.05-4.6-.05-5.69-.33-6.92 2.86-6.97 3a1.34 1.34 0 01-1.69.81 1.32 1.32 0 01-.83-1.67c.07-.22 1.84-5.24 9.65-4.8 1.58.09 3.02.07 4.41.04 4.58-.07 8.54-.14 11.28 4.5.37.63.16 1.45-.47 1.82-.21.13-.44.18-.68.18-.46 0-.9-.23-1.15-.66-1.88-3.14-4.23-3.24-8.95-3.17z"/>
</svg>
