<svg version="1.1" id="Layer_1" xmlns="http://www.w3.org/2000/svg" x="0" y="0" viewBox="0 0 126 126" xml:space="preserve">
  <style>
    .st0{fill:#26566A;} .st1{fill:#FFFFFF;}
  </style>
  <circle class="st0" cx="63" cy="63" r="63"/>
  <path class="st1" d="M109.83 64.76H94.74c-.13-1.46-.52-3.5-1.61-5.69l9.57-4.19a1.5 1.5 0 00-1.21-2.75l-9.69 4.25c-.09.04-.18.09-.26.15a18.56 18.56 0 00-5.1-4.54l9.88-12.84a1.5 1.5 0 10-2.37-1.83l-10.02 13c-.06.07-.1.15-.14.23-2.15-1-4.73-1.85-7.8-2.48l2.29-11.09a1.5 1.5 0 10-2.94-.6l-2.31 11.18a69.4 69.4 0 00-8.46-.64V29.57c0-.83-.67-1.5-1.5-1.5l-.07.01-.07-.01c-.83 0-1.5.67-1.5 1.5v17.34c-3.13.05-5.95.27-8.47.63l-2.31-11.16a1.5 1.5 0 00-2.94.6L50 48.04a35.56 35.56 0 00-7.82 2.46l-.11-.18-10.01-13.01a1.49 1.49 0 00-2.1-.27 1.49 1.49 0 00-.27 2.1l9.83 12.78a18.7 18.7 0 00-5.15 4.55c-.05-.03-.1-.07-.16-.09l-9.69-4.25a1.5 1.5 0 00-1.98.77 1.5 1.5 0 00.77 1.98l9.45 4.14a15.97 15.97 0 00-1.64 5.74H16.17a1.5 1.5 0 100 3H31.1c.1 1.38.4 3.18 1.21 5.12l-8.7 4.36a1.5 1.5 0 001.34 2.68l8.8-4.41a17.48 17.48 0 005.38 5.05l-3.05 4.08a1.5 1.5 0 002.4 1.8l3.09-4.14c.08-.1.13-.21.18-.32a35.22 35.22 0 007.95 2.49l-1.5 5.17a1.5 1.5 0 002.88.84l1.55-5.33.03-.17c2.6.37 5.53.58 8.79.64V91.81c0 .83.67 1.5 1.5 1.5l.05-.01.05.01c.83 0 1.5-.67 1.5-1.5v-6.17-.02c3.26-.06 6.19-.28 8.79-.66l.04.19 1.55 5.33a1.5 1.5 0 001.86 1.02 1.5 1.5 0 001.02-1.86l-1.51-5.2a34.93 34.93 0 007.93-2.53c.05.13.11.26.2.38l3.09 4.14a1.5 1.5 0 002.1.3c.66-.5.8-1.44.3-2.1l-3.09-4.14a17.53 17.53 0 005.32-5.04l8.9 4.46a1.49 1.49 0 002.01-.67 1.5 1.5 0 00-.67-2.01l-8.82-4.42a16.33 16.33 0 001.18-5.06h15.07a1.5 1.5 0 00.01-2.99zm-71.95 3.1a1.59 1.59 0 110-3.18 1.59 1.59 0 010 3.18zm35.71-15.39a1.59 1.59 0 110 3.18c-.88 0-1.59-.7-1.59-1.58s.71-1.6 1.59-1.6zM43.32 74.86a1.59 1.59 0 110-3.18 1.59 1.59 0 010 3.18zm0-14.19a1.59 1.59 0 110-3.18 1.59 1.59 0 010 3.18zm7.08 7.19a1.59 1.59 0 110-3.18 1.59 1.59 0 010 3.18zm1.94 12a1.59 1.59 0 110-3.18 1.59 1.59 0 010 3.18zm0-24.2a1.59 1.59 0 110-3.18 1.59 1.59 0 010 3.18zm5.26 17.2a1.59 1.59 0 110-3.18 1.59 1.59 0 010 3.18zm0-10.19a1.59 1.59 0 110-3.18 1.59 1.59 0 010 3.18zm5.41 18.79h-.08a1.59 1.59 0 110-3.18h.08a1.59 1.59 0 110 3.18zm0-27.39h-.08a1.59 1.59 0 110-3.18h.08a1.59 1.59 0 110 3.18zm5.39 18.79a1.59 1.59 0 110-3.18 1.59 1.59 0 010 3.18zm0-10.19a1.59 1.59 0 110-3.18 1.59 1.59 0 010 3.18zm5.19 17.19a1.59 1.59 0 110-3.18 1.59 1.59 0 010 3.18zm2.01-12a1.59 1.59 0 110-3.18 1.59 1.59 0 010 3.18zm7.01 7a1.59 1.59 0 110-3.18 1.59 1.59 0 010 3.18zm0-14.19a1.59 1.59 0 110-3.18 1.59 1.59 0 010 3.18zm5.44 7.19a1.59 1.59 0 110-3.18 1.59 1.59 0 010 3.18z"/>
</svg>
