<svg version="1.1" id="Layer_1" xmlns="http://www.w3.org/2000/svg" x="0" y="0" viewBox="0 0 126 126" xml:space="preserve">
  <style>
    .st0{fill:#26566A;} .st1{fill-rule:evenodd;clip-rule:evenodd;fill:#FFFFFF;}
  </style>
  <circle class="st0" cx="63" cy="63" r="63"/>
  <path class="st1" d="M60.71 49.85l-26.2 10.69c-6 2.45-9.95 7.85-9.95 14.4l.06 1.92c.11 2.17.18 3.75-1.83 5.88l-6.15 6.5c-.41.44-.39 1.12.04 1.53.18.17.75.3 1.04.3h39.79c26.44 0 14.55-8.6 21.33-1.81l1.38 1.48c.2.21.48.33.77.33h14.23a1.1 1.1 0 00.73-1.9l-5.06-5.2c-1.75-1.8-1.73-4.03-.52-6.12 4.05-6.99 6.37-11 6.31-19.95l-.08-2.27c-.16-3.23-.33-6.91 1.81-8.73l3.18-2.69c.63 3.52.75 10.42.28 13.68-.2 1.42 1.89 1.54 2.17.27 1.68-7.59 1.07-13.97.43-21.05-.14-1.52-.57-3-1.38-3.95a3.18 3.18 0 00-1.51-1.02l-5.16-1.55c-3.85-2.01-6.31-2.96-10.82-2.31-3.53.52-7.49 2.84-9.37 5.9-.92 1.31-1.74 2.55-2.51 3.71-3.49 5.31-6.01 9.11-13.01 11.96z"/>
</svg>
