<svg version="1.1" id="Layer_1" xmlns="http://www.w3.org/2000/svg" x="0" y="0" viewBox="0 0 126 126" xml:space="preserve">
  <style>
    .st0{fill:#26566A;} .st1{fill:#FFFFFF;}
  </style>
  <circle class="st0" cx="63" cy="63" r="63"/>
  <path class="st1" d="M109.2 91.16c-1.15-4.16-3.3-7.14-6.39-8.87-3.6-2.02-7.52-1.78-9.52-1.46-3.2-24.88-22.47-35.88-22.61-35.96-8.74-5.51-18.02-8.52-27.58-8.93-9.73-.42-16.25 2-18.6 3.06-2.84 1.28-4.65 3.03-5.38 5.21a7.27 7.27 0 00.33 5.28C21.9 59.73 26.7 66.1 31.9 70.07c1 .76 2.01 1.43 3.03 2.03-.44 5.63 3.09 9.38 5.62 11.31 1.28.97 2.3 1.49 2.42 1.55a1.17 1.17 0 001.45-1.75c-.1-.13-2.26-3.15-.71-7.61 3.77.9 6.82.96 8.11.93a12.58 12.58 0 005.52 8.37c7.11 4.63 12.42 1.34 12.64 1.19.34-.22.55-.6.54-1.01s-.21-.78-.57-.99c-5.81-3.46-7.36-7.41-7.76-9 5.09-2.66 9.87-3.29 14.23-1.87 6.47 2.1 10.32 8.19 11.5 10.33-8.17 7.78-3.4 16.05-3.35 16.13.24.41.71.63 1.18.56 5.95-.91 8.97-5.39 10.12-7.63 8.12 4.43 12.84-.11 13.04-.32.29-.29.4-.72.29-1.13zM44.28 31.57a6.61 6.61 0 00-1.32-2.8c-.91-1.04-3.22-1.74-4.61-2.08a3.52 3.52 0 01-2.65-2.59c-.12-.59-.28-1.39.22-2.05 2.48-3.29 9.41-.19 8.67 9.52-.01.39-.14.69-.31 0zM45.87 33.77c.17-.61.46-1.36.98-1.93.69-.77 2.44-1.28 3.49-1.52.97-.23 1.8-.95 2.02-1.93.1-.44.22-1.04-.15-1.54-1.82-2.48-7-.27-6.63 6.92.01.34.13.6.29 0z"/>
</svg>
